<?xml version="1.0" encoding="us-ascii" standalone="no"?><svg xmlns="http://www.w3.org/2000/svg" xmlns:xlink="http://www.w3.org/1999/xlink" contentStyleType="text/css" height="1804px" preserveAspectRatio="none" style="width:1759px;height:1804px;background:#FFFFFF;" version="1.1" viewBox="0 0 1759 1804" width="1759px" zoomAndPan="magnify"><defs/><g><text fill="#000000" font-family="sans-serif" font-size="14" font-weight="bold" lengthAdjust="spacing" textLength="126" x="815" y="32.9951">&#33778;&#31070;&#19977;&#38454;&#39764;&#26041;CFOP</text><rect fill="#F1F1F1" height="36.2969" rx="12.5" ry="12.5" style="stroke:#181818;stroke-width:1.5;" width="142" x="10" y="901.75"/><text fill="#000000" font-family="sans-serif" font-size="14" lengthAdjust="spacing" textLength="122" x="20" y="924.7451">&#33778;&#31070;&#19977;&#38454;&#39764;&#26041;CFOP</text><rect fill="#F1F1F1" height="36.2969" rx="12.5" ry="12.5" style="stroke:#181818;stroke-width:1.5;" width="159" x="202" y="395.0781"/><text fill="#000000" font-family="sans-serif" font-size="14" lengthAdjust="spacing" textLength="139" x="212" y="418.0732">1. &#21069;&#20004;&#23618;&#24402;&#20301;&#65288;F2L&#65289;</text><rect fill="#F1F1F1" height="36.2969" rx="12.5" ry="12.5" style="stroke:#181818;stroke-width:1.5;" width="428" x="411" y="57.2969"/><text fill="#000000" font-family="sans-serif" font-size="14" lengthAdjust="spacing" textLength="408" x="421" y="80.292">1. &#25214;&#21040;&#24453;&#36824;&#21407;&#30340;&#19968;&#32452;F2L&#31354;&#27133; Identify two pieces of an F2L pair</text><path d="M361,413.2266 L371,413.2266 C386,413.2266 386,75.4453 401,75.4453 L411,75.4453 " fill="none" style="stroke:#181818;stroke-width:1.0;"/><rect fill="#F1F1F1" height="36.2969" rx="12.5" ry="12.5" style="stroke:#181818;stroke-width:1.5;" width="372" x="411" y="113.5938"/><text fill="#000000" font-family="sans-serif" font-size="14" lengthAdjust="spacing" textLength="352" x="421" y="136.5889">2. &#35282;&#26865;&#23545;&#36716;&#21040;&#39030;&#23618; Bring the pieces into the top layer</text><path d="M361,413.2266 L371,413.2266 C386,413.2266 386,131.7422 401,131.7422 L411,131.7422 " fill="none" style="stroke:#181818;stroke-width:1.0;"/><rect fill="#F1F1F1" height="36.2969" rx="12.5" ry="12.5" style="stroke:#181818;stroke-width:1.5;" width="710" x="411" y="169.8906"/><text fill="#000000" font-family="sans-serif" font-size="14" lengthAdjust="spacing" textLength="690" x="421" y="192.8857">3. &#20998;&#24320;&#35282;&#26865;&#23545; Split up the pieces&#12290;&#23558;&#35282;&#22359;&#36716;&#21040;&#24213;&#23618;&#65292;&#36716;&#21160;&#26865;&#22359;&#65292;&#20877;&#36716;&#22238;&#35282;&#22359;=&gt; `RUR'` &#65288;&#33509;&#24050;&#20998;&#24320;&#21017;&#36339;&#36807;&#65289;</text><path d="M361,413.2266 L371,413.2266 C386,413.2266 386,188.0391 401,188.0391 L411,188.0391 " fill="none" style="stroke:#181818;stroke-width:1.0;"/><rect fill="#F1F1F1" height="36.2969" rx="12.5" ry="12.5" style="stroke:#181818;stroke-width:1.5;" width="284" x="411" y="479.5234"/><text fill="#000000" font-family="sans-serif" font-size="14" lengthAdjust="spacing" textLength="264" x="421" y="502.5186">4. &#23558;F2L&#35282;&#26865;&#22359;&#22635;&#34917;&#21040;&#31354;&#27133; Solve the pair</text><rect fill="#F1F1F1" height="36.2969" rx="12.5" ry="12.5" style="stroke:#181818;stroke-width:1.5;" width="299" x="745" y="310.6328"/><text fill="#000000" font-family="sans-serif" font-size="14" lengthAdjust="spacing" textLength="279" x="755" y="333.6279">1. &#39030;&#23618;&#35282;&#26865;&#22359;&#39030;&#38754;&#39068;&#33394;&#19981;&#21516; `RUR'` / `L'U'L`</text><rect fill="#F1F1F1" height="36.2969" rx="12.5" ry="12.5" style="stroke:#181818;stroke-width:1.5;" width="344" x="1094" y="226.1875"/><text fill="#000000" font-family="sans-serif" font-size="14" lengthAdjust="spacing" textLength="324" x="1104" y="249.1826">1. &#35282;&#22359;&#22312;&#39030;&#23618;&#65292;&#26865;&#22359;&#22312;&#20013;&#23618;&#65292;&#36890;&#36807; `RUR'` &#36716;&#21040;&#39030;&#23618;</text><path d="M1044,328.7813 L1054,328.7813 C1069,328.7813 1069,244.3359 1084,244.3359 L1094,244.3359 " fill="none" style="stroke:#181818;stroke-width:1.0;"/><rect fill="#F1F1F1" height="36.2969" rx="12.5" ry="12.5" style="stroke:#181818;stroke-width:1.5;" width="554" x="1094" y="282.4844"/><text fill="#000000" font-family="sans-serif" font-size="14" lengthAdjust="spacing" textLength="534" x="1104" y="305.4795">2. &#35282;&#26865;&#22359;&#30456;&#37051;&#65292;&#21017;&#36890;&#36807; `R` / `L` &#34255;&#35282;&#22359;&#65288;&#33509;&#35201;&#19981;&#25171;&#20081;F2L&#65292;&#36890;&#36807; `U'` &#31227;&#21160;&#65289;&#65292;&#20877;&#25286;&#24320;</text><path d="M1044,328.7813 L1054,328.7813 C1069,328.7813 1069,300.6328 1084,300.6328 L1094,300.6328 " fill="none" style="stroke:#181818;stroke-width:1.0;"/><rect fill="#F1F1F1" height="36.2969" rx="12.5" ry="12.5" style="stroke:#181818;stroke-width:1.5;" width="65" x="1094" y="366.9297"/><text fill="#000000" font-family="sans-serif" font-size="14" lengthAdjust="spacing" textLength="45" x="1104" y="389.9248">3. &#20844;&#24335;</text><rect fill="#F1F1F1" height="36.2969" rx="12.5" ry="12.5" style="stroke:#181818;stroke-width:1.5;" width="190" x="1209" y="338.7813"/><text fill="#000000" font-family="sans-serif" font-size="14" lengthAdjust="spacing" textLength="170" x="1219" y="361.7764">1. &#21491;&#25163; `RUR'` &#65292;&#30333;&#38754;&#26397;&#21491;</text><path d="M1159,385.0781 L1169,385.0781 C1184,385.0781 1184,356.9297 1199,356.9297 L1209,356.9297 " fill="none" style="stroke:#181818;stroke-width:1.0;"/><rect fill="#F1F1F1" height="36.2969" rx="12.5" ry="12.5" style="stroke:#181818;stroke-width:1.5;" width="313" x="1209" y="395.0781"/><text fill="#000000" font-family="sans-serif" font-size="14" lengthAdjust="spacing" textLength="293" x="1219" y="418.0732">2. &#24038;&#25163; `L'U'L` &#65292;&#30333;&#38754;&#22312;&#21069;&#65292;&#21017;&#23558;&#30333;&#38754;&#26397;&#24038;&#20877;&#36716;</text><path d="M1159,385.0781 L1169,385.0781 C1184,385.0781 1184,413.2266 1199,413.2266 L1209,413.2266 " fill="none" style="stroke:#181818;stroke-width:1.0;"/><path d="M1044,328.7813 L1054,328.7813 C1069,328.7813 1069,385.0781 1084,385.0781 L1094,385.0781 " fill="none" style="stroke:#181818;stroke-width:1.0;"/><path d="M695,497.6719 L705,497.6719 C720,497.6719 720,328.7813 735,328.7813 L745,328.7813 " fill="none" style="stroke:#181818;stroke-width:1.0;"/><rect fill="#F1F1F1" height="36.2969" rx="12.5" ry="12.5" style="stroke:#181818;stroke-width:1.5;" width="322" x="745" y="507.6719"/><text fill="#000000" font-family="sans-serif" font-size="14" lengthAdjust="spacing" textLength="302" x="755" y="530.667">2. &#39030;&#23618;&#35282;&#26865;&#22359;&#39030;&#38754;&#39068;&#33394;&#30456;&#21516; `URU'R'` / `U'L'UL`</text><rect fill="#F1F1F1" height="36.2969" rx="12.5" ry="12.5" style="stroke:#181818;stroke-width:1.5;" width="630" x="1117" y="451.375"/><text fill="#000000" font-family="sans-serif" font-size="14" lengthAdjust="spacing" textLength="610" x="1127" y="474.3701">1. &#34255;&#35282;&#65292;&#26059;&#36716;&#30333;&#38754;&#65288;&#26377;F2L&#24433;&#21709;&#65292;&#36890;&#36807;&#31227;&#21160;&#39030;&#23618;&#65289;&#30333;&#38754;&#26397;&#21069;&#29992; `F` &#34255;&#24213;&#23618;&#65292;&#30333;&#38754;&#26397;&#20391;&#29992; `R'` &#34255;&#24213;&#23618;</text><path d="M1067,525.8203 L1077,525.8203 C1092,525.8203 1092,469.5234 1107,469.5234 L1117,469.5234 " fill="none" style="stroke:#181818;stroke-width:1.0;"/><rect fill="#F1F1F1" height="36.2969" rx="12.5" ry="12.5" style="stroke:#181818;stroke-width:1.5;" width="65" x="1117" y="535.8203"/><text fill="#000000" font-family="sans-serif" font-size="14" lengthAdjust="spacing" textLength="45" x="1127" y="558.8154">2. &#20844;&#24335;</text><rect fill="#F1F1F1" height="36.2969" rx="12.5" ry="12.5" style="stroke:#181818;stroke-width:1.5;" width="132" x="1232" y="507.6719"/><text fill="#000000" font-family="sans-serif" font-size="14" lengthAdjust="spacing" textLength="112" x="1242" y="530.667">+ &#21491;&#25163; `UR U'R'`</text><path d="M1182,553.9688 L1192,553.9688 C1207,553.9688 1207,525.8203 1222,525.8203 L1232,525.8203 " fill="none" style="stroke:#181818;stroke-width:1.0;"/><rect fill="#F1F1F1" height="36.2969" rx="12.5" ry="12.5" style="stroke:#181818;stroke-width:1.5;" width="122" x="1232" y="563.9688"/><text fill="#000000" font-family="sans-serif" font-size="14" lengthAdjust="spacing" textLength="102" x="1242" y="586.9639">+ &#24038;&#25163; `U'L'UL`</text><path d="M1182,553.9688 L1192,553.9688 C1207,553.9688 1207,582.1172 1222,582.1172 L1232,582.1172 " fill="none" style="stroke:#181818;stroke-width:1.0;"/><path d="M1067,525.8203 L1077,525.8203 C1092,525.8203 1092,553.9688 1107,553.9688 L1117,553.9688 " fill="none" style="stroke:#181818;stroke-width:1.0;"/><path d="M695,497.6719 L705,497.6719 C720,497.6719 720,525.8203 735,525.8203 L745,525.8203 " fill="none" style="stroke:#181818;stroke-width:1.0;"/><rect fill="#F1F1F1" height="36.2969" rx="12.5" ry="12.5" style="stroke:#181818;stroke-width:1.5;" width="149" x="745" y="676.5625"/><text fill="#000000" font-family="sans-serif" font-size="14" lengthAdjust="spacing" textLength="129" x="755" y="699.5576">3. &#39030;&#23618;&#35282;&#22359;&#39030;&#38754;&#20026;&#30333;</text><rect fill="#F1F1F1" height="36.2969" rx="12.5" ry="12.5" style="stroke:#181818;stroke-width:1.5;" width="219" x="944" y="620.2656"/><text fill="#000000" font-family="sans-serif" font-size="14" lengthAdjust="spacing" textLength="199" x="954" y="643.2607">1. &#23558;&#26865;&#22359;&#20391;&#38754;&#19982;&#21516;&#33394;&#20013;&#24515;&#22359;&#23545;&#40784;</text><path d="M894,694.7109 L904,694.7109 C919,694.7109 919,638.4141 934,638.4141 L944,638.4141 " fill="none" style="stroke:#181818;stroke-width:1.0;"/><rect fill="#F1F1F1" height="36.2969" rx="12.5" ry="12.5" style="stroke:#181818;stroke-width:1.5;" width="373" x="944" y="676.5625"/><text fill="#000000" font-family="sans-serif" font-size="14" lengthAdjust="spacing" textLength="353" x="954" y="699.5576">2. &#26059;&#36716;&#26865;&#22359;&#33267;&#36828;&#31163;&#27491;&#30830;&#31354;&#27133;&#30340;&#20013;&#23618;&#65288;&#21363;&#38544;&#34255;&#26865;&#22359;&#21040;&#20013;&#23618;&#65289;</text><path d="M894,694.7109 L904,694.7109 C919,694.7109 919,694.7109 934,694.7109 L944,694.7109 " fill="none" style="stroke:#181818;stroke-width:1.0;"/><rect fill="#F1F1F1" height="36.2969" rx="12.5" ry="12.5" style="stroke:#181818;stroke-width:1.5;" width="191" x="944" y="732.8594"/><text fill="#000000" font-family="sans-serif" font-size="14" lengthAdjust="spacing" textLength="171" x="954" y="755.8545">3. &#26059;&#36716;&#39030;&#23618;&#30452;&#33267;&#35282;&#26865;&#22359;&#21305;&#37197;</text><path d="M894,694.7109 L904,694.7109 C919,694.7109 919,751.0078 934,751.0078 L944,751.0078 " fill="none" style="stroke:#181818;stroke-width:1.0;"/><path d="M695,497.6719 L705,497.6719 C720,497.6719 720,694.7109 735,694.7109 L745,694.7109 " fill="none" style="stroke:#181818;stroke-width:1.0;"/><path d="M361,413.2266 L371,413.2266 C386,413.2266 386,497.6719 401,497.6719 L411,497.6719 " fill="none" style="stroke:#181818;stroke-width:1.0;"/><path d="M152,919.8984 L162,919.8984 C177,919.8984 177,413.2266 192,413.2266 L202,413.2266 " fill="none" style="stroke:#181818;stroke-width:1.0;"/><rect fill="#F1F1F1" height="36.2969" rx="12.5" ry="12.5" style="stroke:#181818;stroke-width:1.5;" width="301" x="202" y="1267.6797"/><text fill="#000000" font-family="sans-serif" font-size="14" lengthAdjust="spacing" textLength="281" x="212" y="1290.6748">2. &#22235;&#27493;&#22797;&#21407;&#26368;&#21518;&#19968;&#23618;&#65288;&#20004;&#27493; OLL+&#20004;&#27493; PLL&#65289;</text><rect fill="#F1F1F1" height="36.2969" rx="12.5" ry="12.5" style="stroke:#181818;stroke-width:1.5;" width="77" x="553" y="1098.7891"/><text fill="#000000" font-family="sans-serif" font-size="14" lengthAdjust="spacing" textLength="57" x="563" y="1121.7842">&#20004;&#27493; OLL</text><rect fill="#F1F1F1" height="36.2969" rx="12.5" ry="12.5" style="stroke:#181818;stroke-width:1.5;" width="149" x="680" y="873.6016"/><text fill="#000000" font-family="sans-serif" font-size="14" lengthAdjust="spacing" textLength="129" x="690" y="896.5967">1. &#20808;&#23558;&#39030;&#23618;&#26865;&#22359;&#32763;&#33394;</text><rect fill="#F1F1F1" height="36.2969" rx="12.5" ry="12.5" style="stroke:#181818;stroke-width:1.5;" width="121" x="879" y="789.1563"/><text fill="#000000" font-family="sans-serif" font-size="14" lengthAdjust="spacing" textLength="101" x="889" y="812.1514">1. &#26865;&#22359;&#26397;&#21521;&#27491;&#30830;</text><path d="M829,891.75 L839,891.75 C854,891.75 854,807.3047 869,807.3047 L879,807.3047 " fill="none" style="stroke:#181818;stroke-width:1.0;"/><rect fill="#F1F1F1" height="36.2969" rx="12.5" ry="12.5" style="stroke:#181818;stroke-width:1.5;" width="176" x="879" y="845.4531"/><text fill="#000000" font-family="sans-serif" font-size="14" lengthAdjust="spacing" textLength="156" x="889" y="868.4482">2. &#20004;&#20010;&#30456;&#23545; `FRUR'U'F'`</text><path d="M829,891.75 L839,891.75 C854,891.75 854,863.6016 869,863.6016 L879,863.6016 " fill="none" style="stroke:#181818;stroke-width:1.0;"/><rect fill="#F1F1F1" height="36.2969" rx="12.5" ry="12.5" style="stroke:#181818;stroke-width:1.5;" width="176" x="879" y="901.75"/><text fill="#000000" font-family="sans-serif" font-size="14" lengthAdjust="spacing" textLength="156" x="889" y="924.7451">3. &#20004;&#20010;&#30456;&#37051; `FURU'R'F'`</text><path d="M829,891.75 L839,891.75 C854,891.75 854,919.8984 869,919.8984 L879,919.8984 " fill="none" style="stroke:#181818;stroke-width:1.0;"/><rect fill="#F1F1F1" height="36.2969" rx="12.5" ry="12.5" style="stroke:#181818;stroke-width:1.5;" width="288" x="879" y="958.0469"/><text fill="#000000" font-family="sans-serif" font-size="14" lengthAdjust="spacing" textLength="268" x="889" y="981.042">4. &#27809;&#26377;&#26865;&#22359; `(FRUR'U'F') U2 (FURU'R'F')`</text><path d="M829,891.75 L839,891.75 C854,891.75 854,976.1953 869,976.1953 L879,976.1953 " fill="none" style="stroke:#181818;stroke-width:1.0;"/><path d="M630,1116.9375 L640,1116.9375 C655,1116.9375 655,891.75 670,891.75 L680,891.75 " fill="none" style="stroke:#181818;stroke-width:1.0;"/><rect fill="#F1F1F1" height="36.2969" rx="12.5" ry="12.5" style="stroke:#181818;stroke-width:1.5;" width="321" x="680" y="1070.6406"/><text fill="#000000" font-family="sans-serif" font-size="14" lengthAdjust="spacing" textLength="301" x="690" y="1093.6357">2. &#20877;&#23558;&#35282;&#22359;&#32763;&#33394; &#20808;&#30475;&#39030;&#38754;&#35282;&#22359;&#27491;&#30830;&#25968;&#65292;&#20877;&#30475;&#20391;&#38754;</text><rect fill="#F1F1F1" height="36.2969" rx="12.5" ry="12.5" style="stroke:#181818;stroke-width:1.5;" width="121" x="1051" y="1014.3438"/><text fill="#000000" font-family="sans-serif" font-size="14" lengthAdjust="spacing" textLength="101" x="1061" y="1037.3389">1. &#19968;&#20010;&#35282;&#22359;&#27491;&#30830;</text><path d="M1001,1088.7891 L1011,1088.7891 C1026,1088.7891 1026,1032.4922 1041,1032.4922 L1051,1032.4922 " fill="none" style="stroke:#181818;stroke-width:1.0;"/><rect fill="#F1F1F1" height="36.2969" rx="12.5" ry="12.5" style="stroke:#181818;stroke-width:1.5;" width="136" x="1051" y="1070.6406"/><text fill="#000000" font-family="sans-serif" font-size="14" lengthAdjust="spacing" textLength="116" x="1061" y="1093.6357">1. `RUR'URU2R'`</text><path d="M1001,1088.7891 L1011,1088.7891 C1026,1088.7891 1026,1088.7891 1041,1088.7891 L1051,1088.7891 " fill="none" style="stroke:#181818;stroke-width:1.0;"/><rect fill="#F1F1F1" height="36.2969" rx="12.5" ry="12.5" style="stroke:#181818;stroke-width:1.5;" width="142" x="1051" y="1126.9375"/><text fill="#000000" font-family="sans-serif" font-size="14" lengthAdjust="spacing" textLength="122" x="1061" y="1149.9326">2. `RU2R'U'RU'R'`</text><path d="M1001,1088.7891 L1011,1088.7891 C1026,1088.7891 1026,1145.0859 1041,1145.0859 L1051,1145.0859 " fill="none" style="stroke:#181818;stroke-width:1.0;"/><path d="M630,1116.9375 L640,1116.9375 C655,1116.9375 655,1088.7891 670,1088.7891 L680,1088.7891 " fill="none" style="stroke:#181818;stroke-width:1.0;"/><rect fill="#F1F1F1" height="36.2969" rx="12.5" ry="12.5" style="stroke:#181818;stroke-width:1.5;" width="121" x="680" y="1239.5313"/><text fill="#000000" font-family="sans-serif" font-size="14" lengthAdjust="spacing" textLength="101" x="690" y="1262.5264">2. &#20004;&#20010;&#35282;&#22359;&#27491;&#30830;</text><rect fill="#F1F1F1" height="36.2969" rx="12.5" ry="12.5" style="stroke:#181818;stroke-width:1.5;" width="214" x="851" y="1183.2344"/><text fill="#000000" font-family="sans-serif" font-size="14" lengthAdjust="spacing" textLength="194" x="861" y="1206.2295">1. `R2D (R'U2R) D' (R'U2R')`</text><path d="M801,1257.6797 L811,1257.6797 C826,1257.6797 826,1201.3828 841,1201.3828 L851,1201.3828 " fill="none" style="stroke:#181818;stroke-width:1.0;"/><rect fill="#F1F1F1" height="36.2969" rx="12.5" ry="12.5" style="stroke:#181818;stroke-width:1.5;" width="157" x="851" y="1239.5313"/><text fill="#000000" font-family="sans-serif" font-size="14" lengthAdjust="spacing" textLength="137" x="861" y="1262.5264">2. `r (UR'U') (r'FRF')`</text><path d="M801,1257.6797 L811,1257.6797 C826,1257.6797 826,1257.6797 841,1257.6797 L851,1257.6797 " fill="none" style="stroke:#181818;stroke-width:1.0;"/><rect fill="#F1F1F1" height="36.2969" rx="12.5" ry="12.5" style="stroke:#181818;stroke-width:1.5;" width="147" x="851" y="1295.8281"/><text fill="#000000" font-family="sans-serif" font-size="14" lengthAdjust="spacing" textLength="127" x="861" y="1318.8232">3. `F' (rUR'U') r'FR`</text><path d="M801,1257.6797 L811,1257.6797 C826,1257.6797 826,1313.9766 841,1313.9766 L851,1313.9766 " fill="none" style="stroke:#181818;stroke-width:1.0;"/><path d="M630,1116.9375 L640,1116.9375 C655,1116.9375 655,1257.6797 670,1257.6797 L680,1257.6797 " fill="none" style="stroke:#181818;stroke-width:1.0;"/><rect fill="#F1F1F1" height="36.2969" rx="12.5" ry="12.5" style="stroke:#181818;stroke-width:1.5;" width="79" x="680" y="1380.2734"/><text fill="#000000" font-family="sans-serif" font-size="14" lengthAdjust="spacing" textLength="59" x="690" y="1403.2686">3. &#27809;&#35282;&#22359;</text><rect fill="#F1F1F1" height="36.2969" rx="12.5" ry="12.5" style="stroke:#181818;stroke-width:1.5;" width="210" x="809" y="1352.125"/><text fill="#000000" font-family="sans-serif" font-size="14" lengthAdjust="spacing" textLength="190" x="819" y="1375.1201">1. `(RUR'U) (RU'R'U) RU2R'`</text><path d="M759,1398.4219 L769,1398.4219 C784,1398.4219 784,1370.2734 799,1370.2734 L809,1370.2734 " fill="none" style="stroke:#181818;stroke-width:1.0;"/><rect fill="#F1F1F1" height="36.2969" rx="12.5" ry="12.5" style="stroke:#181818;stroke-width:1.5;" width="192" x="809" y="1408.4219"/><text fill="#000000" font-family="sans-serif" font-size="14" lengthAdjust="spacing" textLength="172" x="819" y="1431.417">2. `RU2R2U'R2U'R2U2R`</text><path d="M759,1398.4219 L769,1398.4219 C784,1398.4219 784,1426.5703 799,1426.5703 L809,1426.5703 " fill="none" style="stroke:#181818;stroke-width:1.0;"/><path d="M630,1116.9375 L640,1116.9375 C655,1116.9375 655,1398.4219 670,1398.4219 L680,1398.4219 " fill="none" style="stroke:#181818;stroke-width:1.0;"/><path d="M503,1285.8281 L513,1285.8281 C528,1285.8281 528,1116.9375 543,1116.9375 L553,1116.9375 " fill="none" style="stroke:#181818;stroke-width:1.0;"/><rect fill="#F1F1F1" height="36.2969" rx="12.5" ry="12.5" style="stroke:#181818;stroke-width:1.5;" width="75" x="553" y="1605.4609"/><text fill="#000000" font-family="sans-serif" font-size="14" lengthAdjust="spacing" textLength="55" x="563" y="1628.4561">&#20004;&#27493; PLL</text><rect fill="#F1F1F1" height="36.2969" rx="12.5" ry="12.5" style="stroke:#181818;stroke-width:1.5;" width="93" x="678" y="1492.8672"/><text fill="#000000" font-family="sans-serif" font-size="14" lengthAdjust="spacing" textLength="73" x="688" y="1515.8623">1. &#39030;&#23618;&#35282;&#22359;</text><rect fill="#F1F1F1" height="36.2969" rx="12.5" ry="12.5" style="stroke:#181818;stroke-width:1.5;" width="476" x="821" y="1464.7188"/><text fill="#000000" font-family="sans-serif" font-size="14" lengthAdjust="spacing" textLength="456" x="831" y="1487.7139">1. &#20004;&#20010;&#35282;&#22359;&#20301;&#32622;&#23545;&#35843;&#65292;&#24038;&#20391;&#26377;&#22836;&#28783;&#12290; `(RUR'U') (R'FR2U') (R'U'RU) R'F'`</text><path d="M771,1511.0156 L781,1511.0156 C796,1511.0156 796,1482.8672 811,1482.8672 L821,1482.8672 " fill="none" style="stroke:#181818;stroke-width:1.0;"/><rect fill="#F1F1F1" height="36.2969" rx="12.5" ry="12.5" style="stroke:#181818;stroke-width:1.5;" width="419" x="821" y="1521.0156"/><text fill="#000000" font-family="sans-serif" font-size="14" lengthAdjust="spacing" textLength="399" x="831" y="1544.0107">2. &#22235;&#20010;&#38754;&#37117;&#27809;&#22836;&#28783;&#65292;&#21363;&#20004;&#20010;&#26012;&#23545;&#35282;&#35282;&#22359;&#23545;&#35843; `(R'UL'U2RU'L) *2`</text><path d="M771,1511.0156 L781,1511.0156 C796,1511.0156 796,1539.1641 811,1539.1641 L821,1539.1641 " fill="none" style="stroke:#181818;stroke-width:1.0;"/><path d="M628,1623.6094 L638,1623.6094 C653,1623.6094 653,1511.0156 668,1511.0156 L678,1511.0156 " fill="none" style="stroke:#181818;stroke-width:1.0;"/><rect fill="#F1F1F1" height="36.2969" rx="12.5" ry="12.5" style="stroke:#181818;stroke-width:1.5;" width="93" x="678" y="1661.7578"/><text fill="#000000" font-family="sans-serif" font-size="14" lengthAdjust="spacing" textLength="73" x="688" y="1684.7529">2. &#26865;&#22359;&#24402;&#20301;</text><rect fill="#F1F1F1" height="36.2969" rx="12.5" ry="12.5" style="stroke:#181818;stroke-width:1.5;" width="340" x="821" y="1577.3125"/><text fill="#000000" font-family="sans-serif" font-size="14" lengthAdjust="spacing" textLength="320" x="831" y="1600.3076">1. &#19977;&#20010;&#26865;&#22359;&#36870;&#26102;&#38024; `(RU') (RU) (RU) (RU') R'U'R2`</text><path d="M771,1679.9063 L781,1679.9063 C796,1679.9063 796,1595.4609 811,1595.4609 L821,1595.4609 " fill="none" style="stroke:#181818;stroke-width:1.0;"/><rect fill="#F1F1F1" height="36.2969" rx="12.5" ry="12.5" style="stroke:#181818;stroke-width:1.5;" width="346" x="821" y="1633.6094"/><text fill="#000000" font-family="sans-serif" font-size="14" lengthAdjust="spacing" textLength="326" x="831" y="1656.6045">2. &#19977;&#20010;&#26865;&#22359;&#39034;&#26102;&#38024; `(R2U) (RU) (R'U') (R'U') R'UR'`</text><path d="M771,1679.9063 L781,1679.9063 C796,1679.9063 796,1651.7578 811,1651.7578 L821,1651.7578 " fill="none" style="stroke:#181818;stroke-width:1.0;"/><rect fill="#F1F1F1" height="36.2969" rx="12.5" ry="12.5" style="stroke:#181818;stroke-width:1.5;" width="121" x="821" y="1718.0547"/><text fill="#000000" font-family="sans-serif" font-size="14" lengthAdjust="spacing" textLength="101" x="831" y="1741.0498">3. &#22235;&#20010;&#26865;&#35282;&#24402;&#20301;</text><rect fill="#F1F1F1" height="36.2969" rx="12.5" ry="12.5" style="stroke:#181818;stroke-width:1.5;" width="262" x="992" y="1689.9063"/><text fill="#000000" font-family="sans-serif" font-size="14" lengthAdjust="spacing" textLength="242" x="1002" y="1712.9014">1. &#30456;&#23545;&#20114;&#25442; `(M2UM2) U2 (M2UM2)`</text><path d="M942,1736.2031 L952,1736.2031 C967,1736.2031 967,1708.0547 982,1708.0547 L992,1708.0547 " fill="none" style="stroke:#181818;stroke-width:1.0;"/><rect fill="#F1F1F1" height="36.2969" rx="12.5" ry="12.5" style="stroke:#181818;stroke-width:1.5;" width="290" x="992" y="1746.2031"/><text fill="#000000" font-family="sans-serif" font-size="14" lengthAdjust="spacing" textLength="270" x="1002" y="1769.1982">2. &#30456;&#37051;&#20114;&#25442; `(M2UM2U) (M'U2M2U2) M'`</text><path d="M942,1736.2031 L952,1736.2031 C967,1736.2031 967,1764.3516 982,1764.3516 L992,1764.3516 " fill="none" style="stroke:#181818;stroke-width:1.0;"/><path d="M771,1679.9063 L781,1679.9063 C796,1679.9063 796,1736.2031 811,1736.2031 L821,1736.2031 " fill="none" style="stroke:#181818;stroke-width:1.0;"/><path d="M628,1623.6094 L638,1623.6094 C653,1623.6094 653,1679.9063 668,1679.9063 L678,1679.9063 " fill="none" style="stroke:#181818;stroke-width:1.0;"/><path d="M503,1285.8281 L513,1285.8281 C528,1285.8281 528,1623.6094 543,1623.6094 L553,1623.6094 " fill="none" style="stroke:#181818;stroke-width:1.0;"/><path d="M152,919.8984 L162,919.8984 C177,919.8984 177,1285.8281 192,1285.8281 L202,1285.8281 " fill="none" style="stroke:#181818;stroke-width:1.0;"/><!--SRC=[VLPjJzjM5FxkNt6_9HaQAowJAgHDrM2PLYKg2dK_su01QuaJEGuJtr8eD1u467r9WQHJA6_RIWbGGNW9_9Zbsiad_aBFlSTlQEiaWcoVb-SvppddsW_pfcAO6KqVpoWvGJ0rCwsIpigni_EktRIwRq-x1w_iD-U3ySV3Wf3_HTDpYg5aI2QhPyUcZ6n69QPHK0L1wEdvOXYO-de9jShjvZOzcgMjjNQhV7jLYek9sokBsRc3RLtJKeDUptTktjBbFvoDv-rcqRby3cxEdnVsNelyFAxgfZOnGynVioIdgMDgdcGdYA8Jy24vHJDuBh6NTFRMxFT7zF2yq_e0IRlrKm0cFnYQFadCATKBrdGpo-_DR8wabHaL4zm7jgK5UbNqqv2HN5epII4NYlwdE4iR2-12QnM4eHUl0URsQedT_hRFGciLkAKBPVPaynqwV_SzaLDIAY8J4A6pk4FFZX6EbjOxPoUTcnTC5aQa7uWq5g0ubqYjGkj_T-exWELACf9DJwj8oYsVQua5-r5mswrjTRUg7UkutIpJrIMFmJT4JaIaI4BceJmMITBgFYO1_YvqTR_TFC0dtU86qFIIX4LsymGzg5MSpMPtzfBfK5ht0n4QOYih28XQT7QV0K7RUja-F-BpuKD90EJiNOAke0wAQYyorLn4rhJv3_Hg1UznvbPER6inK7l9MM-147Qr1XRF3wZIirtkXr84Zb0oZ2qoXqO4qMUxs5D1y5ByZ-9GFrTSIaaHLtE0YKXtHESoCAqhYv0NaK0Iksg13BHrH5-MVJ5G1gyzLa3BAZklzeaSvxBwq-ZRszTxtCvxvZa43RihNu-ldfGYd7Z8ukeLBeCrm1V1Lw3Tl03ue4vG4GK2Bjoy3DBmgJoWDtDioWxFkwtLW1JgWJ6T5x0SLMVtqZvuxzG_uWhmSmB7iaJB9zsDLIZDdTXImpDPmPHWHgJgR7vYIVtjMZhlpfVvYSNqsDoq3tReTXbE8xjQfAlBS20X49naO2AF4uaUzt8u4HncWLNmDvBEbw1sH7NNukOI2W-amQUiZQk_Ou612f2ntVoB3HASHNASpRCKYNijOLNv7h1gu86p5dZ0IM8Vrs6Q48N8KJz9Z4WYYVeHCJaOQXXo_uX3kgmEfxg8pKK3ShLVDt0fmOgz3Ie3sO1Rs3kmyTq4RD4VC0OiymT020TFkAl3bpA9GoGAKM8gHeOYxYMh9qXha2YlEaQYHYIUYWTMa52EGv3XsfdP0xxFnKFK45wKKuTKd2LS_6SL8XZn9xe9IJ0omhzFx3iOuNhXfUcqFh9tMcEEINss2pf3H-ds9-VP8RoDF4QiEkWaG-LNJ4OW5ve676x8pCwekHOKXqbOsl89WjflgWnhRyrz7t1S1W4RpuI5tO-HhyHGSzmTug_tS0aMouQdOd71hfnsrqgSAcSd1VyYZ2HJIWuFVYYwVX54Yq5WnA-J9qY5rmBBX7XMHOWPfuRxrBvOiyjRa3CfIaaHjm4lvT0h0ZVhhYz3Ju8MS0LnIJQemaCLFgMypwdXjAARKZ91fbKZhsLr01NlYVszVT4dKmKILqV9lJxIzs00_hxj9zAJGSBCCI7wqt22vBC5OqmburhUDBJHWWdnCU6HCgsGL04-WpBg0D4BwRJmw6boW8mKHi5DCLNoD2aCgHDA8MsI7_Mnx3XyyWn0wlZN3uI4eayMb4alS30BUOmPlFiC]--></g></svg>