<?xml version="1.0" standalone="no"?>
<!DOCTYPE svg PUBLIC "-//W3C//DTD SVG 20010904//EN"
 "http://www.w3.org/TR/2001/REC-SVG-20010904/DTD/svg10.dtd">
<svg version="1.0" xmlns="http://www.w3.org/2000/svg"
 width="240.000000pt" height="240.000000pt" viewBox="0 0 240.000000 240.000000"
 preserveAspectRatio="xMidYMid meet">
<metadata>
Created by potrace 1.14, written by Peter Selinger 2001-2017
</metadata>
<g transform="translate(0.000000,240.000000) scale(0.100000,-0.100000)"
fill="#000000" stroke="none">
<path d="M1130 2353 c-181 -20 -314 -55 -435 -115 -343 -172 -585 -505 -633
-873 -9 -67 -9 -269 0 -325 22 -136 49 -223 106 -340 82 -168 217 -328 366
-435 217 -154 537 -237 789 -203 108 14 120 17 212 43 216 63 416 198 570 386
79 97 171 284 204 417 32 126 33 131 36 277 8 356 -135 671 -410 905 -189 160
-444 256 -702 263 -43 2 -89 1 -103 0z m475 -424 c8 -8 19 -29 24 -47 8 -26 5
-37 -13 -64 -12 -18 -27 -33 -33 -33 -6 0 -14 -3 -18 -7 -9 -9 -65 1 -79 15
-13 11 -9 67 4 67 4 0 11 -11 14 -25 8 -30 34 -33 68 -5 37 29 32 72 -9 84
-39 11 -92 -14 -150 -71 -22 -22 -56 -47 -76 -56 -34 -16 -35 -19 -26 -50 5
-17 9 -34 9 -36 0 -2 14 -1 32 1 28 4 93 -6 198 -31 56 -14 66 -20 86 -57 10
-19 22 -34 26 -34 15 0 66 -116 77 -172 15 -83 -4 -228 -29 -228 -6 0 -10 -6
-10 -13 0 -8 -13 -33 -30 -55 -16 -23 -30 -44 -30 -46 0 -2 19 0 42 5 69 16
202 16 231 0 33 -18 34 -27 1 -86 -24 -43 -184 -218 -184 -201 0 4 -12 -5 -27
-19 -25 -24 -137 -88 -155 -90 -4 0 -18 -9 -30 -20 -13 -10 -24 -18 -26 -16
-6 6 -72 -24 -72 -33 0 -5 -3 -7 -6 -4 -3 4 -22 -1 -42 -9 -44 -19 -201 -74
-222 -78 -8 -2 -15 -4 -15 -5 0 -1 -7 -3 -15 -5 -8 -1 -35 -8 -59 -15 -97 -26
-214 -38 -382 -39 -196 0 -221 6 -216 57 2 27 34 62 153 166 l41 36 -3 129
c-3 97 -1 133 9 143 7 7 24 36 37 63 30 64 117 147 189 182 31 15 60 33 64 40
4 7 15 13 22 13 15 0 17 13 19 118 1 20 5 40 9 43 4 3 10 18 13 34 3 16 23 51
45 78 21 27 39 54 39 58 0 5 11 9 25 9 14 0 25 4 25 9 0 5 21 19 48 32 64 30
81 46 75 70 -5 17 -11 19 -32 14 -24 -7 -83 -16 -106 -16 -14 -1 -67 11 -76
17 -4 2 -5 13 -2 23 4 18 14 20 81 18 59 -1 88 4 125 21 26 11 48 20 50 19 1
0 11 7 22 16 11 9 49 37 85 61 58 39 71 44 117 42 32 -1 59 -8 68 -17z"/>
</g>
</svg>
